<?xml version="1.0" standalone="no"?>
<!DOCTYPE svg PUBLIC "-//W3C//DTD SVG 20010904//EN"
 "http://www.w3.org/TR/2001/REC-SVG-20010904/DTD/svg10.dtd">
<svg version="1.0" xmlns="http://www.w3.org/2000/svg"
 width="483.000000pt" height="207.000000pt" viewBox="0 0 483.000000 207.000000"
 preserveAspectRatio="xMidYMid meet">

<g transform="translate(0.000000,207.000000) scale(0.100000,-0.100000)"
fill="#000000" stroke="none">
<path d="M310 1949 c-14 -6 -36 -20 -48 -32 -54 -50 -52 -18 -52 -835 l0 -759
23 -33 c12 -18 35 -43 50 -54 28 -21 36 -21 612 -21 l584 0 31 30 c69 66 65
11 65 830 0 407 -3 752 -7 767 -11 38 -57 88 -95 104 -26 11 -140 14 -585 13
-343 0 -563 -4 -578 -10z m1148 -111 c7 -7 12 -42 12 -85 l0 -73 -369 0 -370
0 -3 53 -3 52 -127 3 -127 3 -3 -53 -3 -53 -52 0 c-72 1 -103 30 -103 95 0 25
5 51 12 58 17 17 1119 17 1136 0z m-778 -223 l0 -135 -40 20 -40 20 -40 -20
-40 -20 0 135 0 135 80 0 80 0 0 -135z m-325 30 c22 -8 57 -14 78 -15 l37 0 0
-100 c0 -120 7 -127 85 -86 l51 27 47 -27 c71 -39 77 -32 77 86 l0 100 370 0
370 0 0 -644 c0 -573 -2 -646 -16 -660 -14 -14 -79 -16 -564 -16 -485 0 -550
2 -564 16 -14 14 -16 89 -16 675 0 362 1 659 3 659 1 0 20 -7 42 -15z"/>
<path d="M1060 1342 c0 -4 18 -25 40 -47 21 -21 37 -42 34 -47 -3 -4 -118 -8
-257 -8 l-251 1 -25 -26 c-25 -24 -26 -31 -26 -129 0 -97 2 -106 24 -130 l24
-26 246 0 c178 0 253 -4 271 -13 25 -12 25 -15 25 -132 0 -117 0 -120 -25
-132 -27 -14 -490 -19 -504 -6 -3 4 12 26 36 50 23 23 39 46 35 50 -8 7 -117
-99 -117 -114 0 -15 109 -117 117 -110 4 4 -13 28 -37 52 l-44 45 247 0 c330
0 327 -1 327 169 0 91 -2 102 -24 128 l-24 28 -259 3 c-219 3 -261 6 -275 19
-15 13 -18 33 -18 118 0 147 -15 139 277 143 130 2 243 0 251 -3 12 -4 6 -15
-26 -48 -24 -24 -39 -46 -35 -50 4 -4 33 18 65 50 l58 57 -57 58 c-55 55 -73
68 -73 50z"/>
<path d="M4057 1336 c-20 -20 -35 -475 -17 -521 27 -70 96 -103 146 -70 37 24
30 59 -13 63 -54 5 -56 19 -48 278 8 246 5 264 -36 264 -9 0 -24 -6 -32 -14z"/>
<path d="M2602 1308 c-20 -20 -15 -76 8 -88 23 -12 64 -4 81 16 19 23 2 61
-32 73 -40 14 -42 14 -57 -1z"/>
<path d="M2202 1295 c-64 -20 -92 -42 -113 -89 -22 -52 -13 -99 28 -141 33
-32 60 -46 133 -70 122 -39 165 -78 140 -125 -24 -46 -131 -65 -190 -35 -16 9
-37 29 -45 45 -33 63 -95 60 -95 -4 0 -45 30 -79 96 -112 70 -34 148 -36 221
-4 73 31 105 68 111 129 8 92 -38 135 -204 191 -48 16 -93 35 -100 41 -21 17
-17 47 11 74 40 41 160 31 192 -15 16 -22 53 -26 71 -8 23 23 13 56 -25 87
-62 51 -143 64 -231 36z"/>
<path d="M2618 1119 c-16 -9 -18 -27 -17 -162 1 -84 4 -165 8 -182 8 -36 50
-56 76 -35 14 12 16 37 13 192 -2 146 -6 181 -18 188 -19 12 -40 12 -62 -1z"/>
<path d="M2813 1120 c-12 -5 -26 -18 -32 -29 -14 -26 9 -50 42 -44 40 8 51
-36 42 -177 l-7 -120 27 -12 c47 -21 59 -3 68 103 9 120 28 174 67 187 70 25
92 -11 98 -158 4 -109 16 -140 52 -140 33 0 40 22 40 132 0 121 13 163 54 174
65 16 96 -30 96 -144 0 -123 41 -180 109 -152 31 12 50 42 32 48 -6 2 -20 11
-31 20 -18 14 -22 34 -29 119 -7 89 -11 106 -35 137 -54 72 -125 82 -202 30
l-36 -25 -19 25 c-39 50 -118 45 -180 -11 -24 -22 -39 -30 -39 -21 0 20 -40
55 -70 62 -14 3 -35 1 -47 -4z"/>
<path d="M3740 1121 c-19 -4 -47 -15 -61 -24 -25 -16 -27 -16 -44 3 -21 23
-67 26 -84 6 -10 -12 -7 -26 15 -71 29 -62 29 -72 8 -376 -6 -80 -5 -88 15
-108 23 -23 58 -21 73 3 4 6 8 58 8 115 0 94 1 102 18 95 39 -17 91 -16 135 4
189 84 117 391 -83 353z m67 -86 c53 -37 51 -157 -4 -192 -31 -20 -85 -22
-107 -4 -19 16 -22 126 -5 165 20 43 77 58 116 31z"/>
<path d="M4397 1120 c-43 -13 -92 -55 -111 -93 -22 -48 -21 -141 3 -194 21
-46 75 -87 129 -98 77 -16 203 46 188 92 -10 33 -32 35 -83 8 -25 -14 -58 -25
-74 -25 -33 0 -89 44 -89 71 0 17 8 19 104 19 91 0 107 3 131 22 24 19 27 26
22 66 -3 24 -13 56 -24 71 -37 51 -134 81 -196 61z m102 -85 c26 -13 41 -33
41 -56 0 -5 -43 -9 -95 -9 -61 0 -95 4 -95 11 0 6 13 24 29 40 33 33 75 38
120 14z"/>
</g>
</svg>
